<svg width="85" height="82" viewBox="0 0 85 82" fill="none" xmlns="http://www.w3.org/2000/svg">
<path d="M84.132 40.8163C84.132 63.3586 65.4962 81.6327 42.5077 81.6327C19.5192 81.6327 0.883301 63.3586 0.883301 40.8163C0.883301 18.2741 19.5192 0 42.5077 0C65.4962 0 84.132 18.2741 84.132 40.8163Z" fill="#2DB059"/>
<rect width="22.4082" height="8.09682" rx="2" transform="matrix(0.762078 0.647485 -0.632218 0.774791 27.1191 38.4351)" fill="white"/>
<path d="M62.9495 26.311C63.8012 27.0143 63.9353 28.2861 63.249 29.1515L40.5727 57.7463C39.8863 58.6118 38.6395 58.7433 37.7878 58.04L33.111 54.1783L57.0301 24.0164C57.7164 23.151 58.9632 23.0195 59.815 23.7228L62.9495 26.311Z" fill="white"/>
</svg>
